# Blender v2.92.0 OBJ File: ''
# www.blender.org
mtllib star.mtl
o Mesh_Mesh.015
v -0.808665 0.585221 -0.059814
v -2.592632 -0.000005 -0.369337
v 0.049711 0.033025 -0.348956
v -0.833939 2.479772 0.115887
v 0.293415 0.946910 0.131415
v 2.077230 1.532587 0.440959
v 0.990005 0.000001 0.141033
v 2.117735 -1.532584 0.156641
v 0.318441 -0.946909 -0.044252
v -0.768400 -2.479773 -0.344150
v -0.793197 -0.585224 -0.168382
v -0.049708 -0.033023 0.348934
vn -0.0010 -0.4651 0.8853
vn 0.2683 -0.0854 0.9595
vn -0.4467 -0.3200 0.8355
vn -0.0009 -0.4651 0.8853
vn -0.4528 0.1492 0.8790
vn -0.4466 -0.3201 0.8355
vn -0.0110 0.2942 0.9557
vn -0.4529 0.1491 0.8790
vn 0.2683 -0.0855 0.9595
vn 0.2462 0.4651 -0.8503
vn 0.5255 0.0854 -0.8465
vn -0.1956 0.3200 -0.9270
vn 0.2463 0.4651 -0.8503
vn -0.1893 -0.1492 -0.9705
vn -0.1955 0.3201 -0.9270
vn 0.2564 -0.2941 -0.9207
vn -0.1894 -0.1491 -0.9705
vn 0.5255 0.0855 -0.8465
vn 0.2563 -0.2942 -0.9208
usemtl Material.001
s 1
f 1//1 2//1 3//1
f 1//2 3//2 4//2
f 5//3 4//3 3//3
f 5//4 3//4 6//4
f 7//5 6//5 3//5
f 7//6 3//6 8//6
f 9//7 8//7 3//7
f 9//8 3//8 10//8
f 11//9 10//9 3//9
f 11//7 3//7 2//7
f 11//10 2//10 12//10
f 11//11 12//11 10//11
f 9//12 10//12 12//12
f 9//13 12//13 8//13
f 7//14 8//14 12//14
f 7//15 12//15 6//15
f 5//16 6//16 12//16
f 5//17 12//17 4//17
f 1//18 4//18 12//18
f 1//19 12//19 2//19
